<svg xmlns="http://www.w3.org/2000/svg" viewBox="0 0 1024 1024" role="img" aria-labelledby="title">
  <title id="title">Scribely</title>
  <defs>
    <linearGradient id="scribelyBlue" x1="0" y1="0" x2="1" y2="1">
      <stop offset="0" stop-color="#669efd" />
      <stop offset="1" stop-color="#3e82fa" />
    </linearGradient>
  </defs>
  <rect width="1024" height="1024" rx="224" fill="url(#scribelyBlue)" />
  <g fill="#ffffff">
    <rect x="242" y="326" width="42" height="126" rx="21" />
    <rect x="306" y="258" width="42" height="218" rx="21" />
    <rect x="370" y="204" width="42" height="294" rx="21" />
    <rect x="434" y="170" width="42" height="250" rx="21" />
    <rect x="498" y="164" width="42" height="196" rx="21" />
    <rect x="562" y="184" width="42" height="168" rx="21" />
    <rect x="626" y="222" width="42" height="142" rx="21" />
    <rect x="690" y="270" width="42" height="118" rx="21" />
    <rect x="242" y="636" width="42" height="118" rx="21" />
    <rect x="306" y="660" width="42" height="142" rx="21" />
    <rect x="370" y="672" width="42" height="168" rx="21" />
    <rect x="434" y="664" width="42" height="196" rx="21" />
    <rect x="498" y="604" width="42" height="250" rx="21" />
    <rect x="562" y="526" width="42" height="294" rx="21" />
    <rect x="626" y="548" width="42" height="218" rx="21" />
    <rect x="690" y="572" width="42" height="126" rx="21" />
  </g>
</svg>
